<svg version="1.1" xmlns:xlink="http://www.w3.org/1999/xlink" xmlns="http://www.w3.org/2000/svg" width="512" height="512">
<line x1="431" y1="398" x2="431" y2="399" style="stroke:rgb(0,0,0);stroke-width:1" />
<line x1="431" y1="399" x2="348" y2="391" style="stroke:rgb(0,0,0);stroke-width:1" />
<line x1="348" y1="391" x2="431" y2="398" style="stroke:rgb(0,0,0);stroke-width:1" />
<line x1="431" y1="399" x2="337" y2="423" style="stroke:rgb(0,0,0);stroke-width:1" />
<line x1="337" y1="423" x2="348" y2="391" style="stroke:rgb(0,0,0);stroke-width:1" />
<line x1="348" y1="391" x2="431" y2="399" style="stroke:rgb(0,0,0);stroke-width:1" />
<line x1="337" y1="423" x2="208" y2="406" style="stroke:rgb(0,0,0);stroke-width:1" />
<line x1="208" y1="406" x2="348" y2="391" style="stroke:rgb(0,0,0);stroke-width:1" />
<line x1="348" y1="391" x2="337" y2="423" style="stroke:rgb(0,0,0);stroke-width:1" />
<line x1="348" y1="391" x2="208" y2="406" style="stroke:rgb(0,0,0);stroke-width:1" />
<line x1="208" y1="406" x2="226" y2="371" style="stroke:rgb(0,0,0);stroke-width:1" />
<line x1="226" y1="371" x2="348" y2="391" style="stroke:rgb(0,0,0);stroke-width:1" />
<line x1="125" y1="392" x2="142" y2="364" style="stroke:rgb(0,0,0);stroke-width:1" />
<line x1="142" y1="364" x2="208" y2="406" style="stroke:rgb(0,0,0);stroke-width:1" />
<line x1="208" y1="406" x2="125" y2="392" style="stroke:rgb(0,0,0);stroke-width:1" />
<line x1="208" y1="406" x2="142" y2="364" style="stroke:rgb(0,0,0);stroke-width:1" />
<line x1="142" y1="364" x2="226" y2="371" style="stroke:rgb(0,0,0);stroke-width:1" />
<line x1="226" y1="371" x2="208" y2="406" style="stroke:rgb(0,0,0);stroke-width:1" />
<line x1="348" y1="391" x2="350" y2="351" style="stroke:rgb(0,0,0);stroke-width:1" />
<line x1="350" y1="351" x2="431" y2="398" style="stroke:rgb(0,0,0);stroke-width:1" />
<line x1="431" y1="398" x2="348" y2="391" style="stroke:rgb(0,0,0);stroke-width:1" />
<line x1="431" y1="398" x2="350" y2="351" style="stroke:rgb(0,0,0);stroke-width:1" />
<line x1="350" y1="351" x2="432" y2="385" style="stroke:rgb(0,0,0);stroke-width:1" />
<line x1="432" y1="385" x2="431" y2="398" style="stroke:rgb(0,0,0);stroke-width:1" />
<line x1="348" y1="391" x2="226" y2="371" style="stroke:rgb(0,0,0);stroke-width:1" />
<line x1="226" y1="371" x2="350" y2="351" style="stroke:rgb(0,0,0);stroke-width:1" />
<line x1="350" y1="351" x2="348" y2="391" style="stroke:rgb(0,0,0);stroke-width:1" />
<line x1="350" y1="351" x2="226" y2="371" style="stroke:rgb(0,0,0);stroke-width:1" />
<line x1="226" y1="371" x2="228" y2="333" style="stroke:rgb(0,0,0);stroke-width:1" />
<line x1="228" y1="333" x2="350" y2="351" style="stroke:rgb(0,0,0);stroke-width:1" />
<line x1="142" y1="364" x2="137" y2="326" style="stroke:rgb(0,0,0);stroke-width:1" />
<line x1="137" y1="326" x2="226" y2="371" style="stroke:rgb(0,0,0);stroke-width:1" />
<line x1="226" y1="371" x2="142" y2="364" style="stroke:rgb(0,0,0);stroke-width:1" />
<line x1="226" y1="371" x2="137" y2="326" style="stroke:rgb(0,0,0);stroke-width:1" />
<line x1="137" y1="326" x2="228" y2="333" style="stroke:rgb(0,0,0);stroke-width:1" />
<line x1="228" y1="333" x2="226" y2="371" style="stroke:rgb(0,0,0);stroke-width:1" />
<line x1="350" y1="351" x2="339" y2="373" style="stroke:rgb(0,0,0);stroke-width:1" />
<line x1="339" y1="373" x2="432" y2="385" style="stroke:rgb(0,0,0);stroke-width:1" />
<line x1="432" y1="385" x2="350" y2="351" style="stroke:rgb(0,0,0);stroke-width:1" />
<line x1="432" y1="385" x2="339" y2="373" style="stroke:rgb(0,0,0);stroke-width:1" />
<line x1="339" y1="373" x2="432" y2="385" style="stroke:rgb(0,0,0);stroke-width:1" />
<line x1="432" y1="385" x2="432" y2="385" style="stroke:rgb(0,0,0);stroke-width:1" />
<line x1="228" y1="333" x2="206" y2="356" style="stroke:rgb(0,0,0);stroke-width:1" />
<line x1="206" y1="356" x2="350" y2="351" style="stroke:rgb(0,0,0);stroke-width:1" />
<line x1="350" y1="351" x2="228" y2="333" style="stroke:rgb(0,0,0);stroke-width:1" />
<line x1="350" y1="351" x2="206" y2="356" style="stroke:rgb(0,0,0);stroke-width:1" />
<line x1="206" y1="356" x2="339" y2="373" style="stroke:rgb(0,0,0);stroke-width:1" />
<line x1="339" y1="373" x2="350" y2="351" style="stroke:rgb(0,0,0);stroke-width:1" />
<line x1="228" y1="333" x2="137" y2="326" style="stroke:rgb(0,0,0);stroke-width:1" />
<line x1="137" y1="326" x2="206" y2="356" style="stroke:rgb(0,0,0);stroke-width:1" />
<line x1="206" y1="356" x2="228" y2="333" style="stroke:rgb(0,0,0);stroke-width:1" />
<line x1="206" y1="356" x2="137" y2="326" style="stroke:rgb(0,0,0);stroke-width:1" />
<line x1="137" y1="326" x2="114" y2="344" style="stroke:rgb(0,0,0);stroke-width:1" />
<line x1="114" y1="344" x2="206" y2="356" style="stroke:rgb(0,0,0);stroke-width:1" />
<line x1="326" y1="397" x2="432" y2="385" style="stroke:rgb(0,0,0);stroke-width:1" />
<line x1="432" y1="385" x2="339" y2="373" style="stroke:rgb(0,0,0);stroke-width:1" />
<line x1="339" y1="373" x2="326" y2="397" style="stroke:rgb(0,0,0);stroke-width:1" />
<line x1="432" y1="385" x2="339" y2="373" style="stroke:rgb(0,0,0);stroke-width:1" />
<line x1="339" y1="373" x2="432" y2="385" style="stroke:rgb(0,0,0);stroke-width:1" />
<line x1="432" y1="385" x2="432" y2="385" style="stroke:rgb(0,0,0);stroke-width:1" />
<line x1="339" y1="373" x2="206" y2="356" style="stroke:rgb(0,0,0);stroke-width:1" />
<line x1="206" y1="356" x2="326" y2="397" style="stroke:rgb(0,0,0);stroke-width:1" />
<line x1="326" y1="397" x2="339" y2="373" style="stroke:rgb(0,0,0);stroke-width:1" />
<line x1="326" y1="397" x2="206" y2="356" style="stroke:rgb(0,0,0);stroke-width:1" />
<line x1="206" y1="356" x2="182" y2="382" style="stroke:rgb(0,0,0);stroke-width:1" />
<line x1="182" y1="382" x2="326" y2="397" style="stroke:rgb(0,0,0);stroke-width:1" />
<line x1="114" y1="344" x2="89" y2="365" style="stroke:rgb(0,0,0);stroke-width:1" />
<line x1="89" y1="365" x2="206" y2="356" style="stroke:rgb(0,0,0);stroke-width:1" />
<line x1="206" y1="356" x2="114" y2="344" style="stroke:rgb(0,0,0);stroke-width:1" />
<line x1="206" y1="356" x2="89" y2="365" style="stroke:rgb(0,0,0);stroke-width:1" />
<line x1="89" y1="365" x2="182" y2="382" style="stroke:rgb(0,0,0);stroke-width:1" />
<line x1="182" y1="382" x2="206" y2="356" style="stroke:rgb(0,0,0);stroke-width:1" />
<line x1="432" y1="385" x2="326" y2="397" style="stroke:rgb(0,0,0);stroke-width:1" />
<line x1="326" y1="397" x2="431" y2="398" style="stroke:rgb(0,0,0);stroke-width:1" />
<line x1="431" y1="398" x2="432" y2="385" style="stroke:rgb(0,0,0);stroke-width:1" />
<line x1="431" y1="398" x2="326" y2="397" style="stroke:rgb(0,0,0);stroke-width:1" />
<line x1="326" y1="397" x2="326" y2="436" style="stroke:rgb(0,0,0);stroke-width:1" />
<line x1="326" y1="436" x2="431" y2="398" style="stroke:rgb(0,0,0);stroke-width:1" />
<line x1="182" y1="382" x2="186" y2="420" style="stroke:rgb(0,0,0);stroke-width:1" />
<line x1="186" y1="420" x2="326" y2="397" style="stroke:rgb(0,0,0);stroke-width:1" />
<line x1="326" y1="397" x2="182" y2="382" style="stroke:rgb(0,0,0);stroke-width:1" />
<line x1="326" y1="397" x2="186" y2="420" style="stroke:rgb(0,0,0);stroke-width:1" />
<line x1="186" y1="420" x2="326" y2="436" style="stroke:rgb(0,0,0);stroke-width:1" />
<line x1="326" y1="436" x2="326" y2="397" style="stroke:rgb(0,0,0);stroke-width:1" />
<line x1="182" y1="382" x2="89" y2="365" style="stroke:rgb(0,0,0);stroke-width:1" />
<line x1="89" y1="365" x2="186" y2="420" style="stroke:rgb(0,0,0);stroke-width:1" />
<line x1="186" y1="420" x2="182" y2="382" style="stroke:rgb(0,0,0);stroke-width:1" />
<line x1="186" y1="420" x2="89" y2="365" style="stroke:rgb(0,0,0);stroke-width:1" />
<line x1="89" y1="365" x2="100" y2="402" style="stroke:rgb(0,0,0);stroke-width:1" />
<line x1="100" y1="402" x2="186" y2="420" style="stroke:rgb(0,0,0);stroke-width:1" />
<line x1="431" y1="398" x2="326" y2="436" style="stroke:rgb(0,0,0);stroke-width:1" />
<line x1="326" y1="436" x2="431" y2="399" style="stroke:rgb(0,0,0);stroke-width:1" />
<line x1="431" y1="399" x2="431" y2="398" style="stroke:rgb(0,0,0);stroke-width:1" />
<line x1="326" y1="436" x2="337" y2="423" style="stroke:rgb(0,0,0);stroke-width:1" />
<line x1="337" y1="423" x2="431" y2="399" style="stroke:rgb(0,0,0);stroke-width:1" />
<line x1="431" y1="399" x2="326" y2="436" style="stroke:rgb(0,0,0);stroke-width:1" />
<line x1="186" y1="420" x2="208" y2="406" style="stroke:rgb(0,0,0);stroke-width:1" />
<line x1="208" y1="406" x2="326" y2="436" style="stroke:rgb(0,0,0);stroke-width:1" />
<line x1="326" y1="436" x2="186" y2="420" style="stroke:rgb(0,0,0);stroke-width:1" />
<line x1="326" y1="436" x2="208" y2="406" style="stroke:rgb(0,0,0);stroke-width:1" />
<line x1="208" y1="406" x2="337" y2="423" style="stroke:rgb(0,0,0);stroke-width:1" />
<line x1="337" y1="423" x2="326" y2="436" style="stroke:rgb(0,0,0);stroke-width:1" />
<line x1="186" y1="420" x2="100" y2="402" style="stroke:rgb(0,0,0);stroke-width:1" />
<line x1="100" y1="402" x2="208" y2="406" style="stroke:rgb(0,0,0);stroke-width:1" />
<line x1="208" y1="406" x2="186" y2="420" style="stroke:rgb(0,0,0);stroke-width:1" />
<line x1="208" y1="406" x2="100" y2="402" style="stroke:rgb(0,0,0);stroke-width:1" />
<line x1="100" y1="402" x2="125" y2="392" style="stroke:rgb(0,0,0);stroke-width:1" />
<line x1="125" y1="392" x2="208" y2="406" style="stroke:rgb(0,0,0);stroke-width:1" />
<line x1="125" y1="392" x2="100" y2="402" style="stroke:rgb(0,0,0);stroke-width:1" />
<line x1="100" y1="402" x2="122" y2="382" style="stroke:rgb(0,0,0);stroke-width:1" />
<line x1="122" y1="382" x2="125" y2="392" style="stroke:rgb(0,0,0);stroke-width:1" />
<line x1="125" y1="392" x2="122" y2="382" style="stroke:rgb(0,0,0);stroke-width:1" />
<line x1="122" y1="382" x2="142" y2="364" style="stroke:rgb(0,0,0);stroke-width:1" />
<line x1="142" y1="364" x2="125" y2="392" style="stroke:rgb(0,0,0);stroke-width:1" />
<line x1="122" y1="382" x2="100" y2="402" style="stroke:rgb(0,0,0);stroke-width:1" />
<line x1="100" y1="402" x2="114" y2="344" style="stroke:rgb(0,0,0);stroke-width:1" />
<line x1="114" y1="344" x2="122" y2="382" style="stroke:rgb(0,0,0);stroke-width:1" />
<line x1="114" y1="344" x2="100" y2="402" style="stroke:rgb(0,0,0);stroke-width:1" />
<line x1="100" y1="402" x2="89" y2="365" style="stroke:rgb(0,0,0);stroke-width:1" />
<line x1="89" y1="365" x2="114" y2="344" style="stroke:rgb(0,0,0);stroke-width:1" />
<line x1="122" y1="382" x2="114" y2="344" style="stroke:rgb(0,0,0);stroke-width:1" />
<line x1="114" y1="344" x2="142" y2="364" style="stroke:rgb(0,0,0);stroke-width:1" />
<line x1="142" y1="364" x2="122" y2="382" style="stroke:rgb(0,0,0);stroke-width:1" />
<line x1="142" y1="364" x2="114" y2="344" style="stroke:rgb(0,0,0);stroke-width:1" />
<line x1="114" y1="344" x2="137" y2="326" style="stroke:rgb(0,0,0);stroke-width:1" />
<line x1="137" y1="326" x2="142" y2="364" style="stroke:rgb(0,0,0);stroke-width:1" />
<line x1="431" y1="399" x2="431" y2="398" style="stroke:rgb(0,0,0);stroke-width:1" />
<line x1="431" y1="398" x2="431" y2="398" style="stroke:rgb(0,0,0);stroke-width:1" />
<line x1="431" y1="398" x2="431" y2="399" style="stroke:rgb(0,0,0);stroke-width:1" />
<line x1="431" y1="399" x2="431" y2="398" style="stroke:rgb(0,0,0);stroke-width:1" />
<line x1="431" y1="398" x2="431" y2="398" style="stroke:rgb(0,0,0);stroke-width:1" />
<line x1="431" y1="398" x2="431" y2="399" style="stroke:rgb(0,0,0);stroke-width:1" />
<line x1="431" y1="398" x2="431" y2="398" style="stroke:rgb(0,0,0);stroke-width:1" />
<line x1="431" y1="398" x2="432" y2="385" style="stroke:rgb(0,0,0);stroke-width:1" />
<line x1="432" y1="385" x2="431" y2="398" style="stroke:rgb(0,0,0);stroke-width:1" />
<line x1="432" y1="385" x2="431" y2="398" style="stroke:rgb(0,0,0);stroke-width:1" />
<line x1="431" y1="398" x2="432" y2="385" style="stroke:rgb(0,0,0);stroke-width:1" />
<line x1="432" y1="385" x2="432" y2="385" style="stroke:rgb(0,0,0);stroke-width:1" />
<line x1="431" y1="398" x2="431" y2="398" style="stroke:rgb(0,0,0);stroke-width:1" />
<line x1="431" y1="398" x2="432" y2="385" style="stroke:rgb(0,0,0);stroke-width:1" />
<line x1="432" y1="385" x2="431" y2="398" style="stroke:rgb(0,0,0);stroke-width:1" />
<line x1="432" y1="385" x2="431" y2="398" style="stroke:rgb(0,0,0);stroke-width:1" />
<line x1="431" y1="398" x2="432" y2="385" style="stroke:rgb(0,0,0);stroke-width:1" />
<line x1="432" y1="385" x2="432" y2="385" style="stroke:rgb(0,0,0);stroke-width:1" />
<line x1="235" y1="352" x2="231" y2="59" style="stroke:rgb(0,0,0);stroke-width:1" />
<line x1="231" y1="59" x2="93" y2="333" style="stroke:rgb(0,0,0);stroke-width:1" />
<line x1="93" y1="333" x2="235" y2="352" style="stroke:rgb(0,0,0);stroke-width:1" />
<line x1="431" y1="380" x2="238" y2="67" style="stroke:rgb(0,0,0);stroke-width:1" />
<line x1="238" y1="67" x2="329" y2="369" style="stroke:rgb(0,0,0);stroke-width:1" />
<line x1="329" y1="369" x2="431" y2="380" style="stroke:rgb(0,0,0);stroke-width:1" />
<line x1="243" y1="69" x2="245" y2="349" style="stroke:rgb(0,0,0);stroke-width:1" />
<line x1="245" y1="349" x2="334" y2="361" style="stroke:rgb(0,0,0);stroke-width:1" />
<line x1="334" y1="361" x2="243" y2="69" style="stroke:rgb(0,0,0);stroke-width:1" />
</svg>
