<svg version ="1.1" xmlns:xlink="http://www.w3.org/1999/xlink" xmlns="http://www.w3.org/2000/svg" width="640" height="480">
<line   x1 = "410" y1 = "313" x2 = "410" y2 = "313" style = "stroke:rgb(0,0, 0); stroke-width:1" />
<line   x1 = "410" y1 = "313" x2 = "367" y2 = "310" style = "stroke:rgb(0,0, 0); stroke-width:1" />
<line   x1 = "367" y1 = "310" x2 = "410" y2 = "313" style = "stroke:rgb(0,0, 0); stroke-width:1" />
<line   x1 = "410" y1 = "313" x2 = "362" y2 = "326" style = "stroke:rgb(0,0, 0); stroke-width:1" />
<line   x1 = "362" y1 = "326" x2 = "367" y2 = "310" style = "stroke:rgb(0,0, 0); stroke-width:1" />
<line   x1 = "367" y1 = "310" x2 = "410" y2 = "313" style = "stroke:rgb(0,0, 0); stroke-width:1" />
<line   x1 = "362" y1 = "326" x2 = "295" y2 = "317" style = "stroke:rgb(0,0, 0); stroke-width:1" />
<line   x1 = "295" y1 = "317" x2 = "367" y2 = "310" style = "stroke:rgb(0,0, 0); stroke-width:1" />
<line   x1 = "367" y1 = "310" x2 = "362" y2 = "326" style = "stroke:rgb(0,0, 0); stroke-width:1" />
<line   x1 = "367" y1 = "310" x2 = "295" y2 = "317" style = "stroke:rgb(0,0, 0); stroke-width:1" />
<line   x1 = "295" y1 = "317" x2 = "304" y2 = "299" style = "stroke:rgb(0,0, 0); stroke-width:1" />
<line   x1 = "304" y1 = "299" x2 = "367" y2 = "310" style = "stroke:rgb(0,0, 0); stroke-width:1" />
<line   x1 = "252" y1 = "310" x2 = "261" y2 = "295" style = "stroke:rgb(0,0, 0); stroke-width:1" />
<line   x1 = "261" y1 = "295" x2 = "295" y2 = "317" style = "stroke:rgb(0,0, 0); stroke-width:1" />
<line   x1 = "295" y1 = "317" x2 = "252" y2 = "310" style = "stroke:rgb(0,0, 0); stroke-width:1" />
<line   x1 = "295" y1 = "317" x2 = "261" y2 = "295" style = "stroke:rgb(0,0, 0); stroke-width:1" />
<line   x1 = "261" y1 = "295" x2 = "304" y2 = "299" style = "stroke:rgb(0,0, 0); stroke-width:1" />
<line   x1 = "304" y1 = "299" x2 = "295" y2 = "317" style = "stroke:rgb(0,0, 0); stroke-width:1" />
<line   x1 = "367" y1 = "310" x2 = "368" y2 = "289" style = "stroke:rgb(0,0, 0); stroke-width:1" />
<line   x1 = "368" y1 = "289" x2 = "410" y2 = "313" style = "stroke:rgb(0,0, 0); stroke-width:1" />
<line   x1 = "410" y1 = "313" x2 = "367" y2 = "310" style = "stroke:rgb(0,0, 0); stroke-width:1" />
<line   x1 = "410" y1 = "313" x2 = "368" y2 = "289" style = "stroke:rgb(0,0, 0); stroke-width:1" />
<line   x1 = "368" y1 = "289" x2 = "410" y2 = "306" style = "stroke:rgb(0,0, 0); stroke-width:1" />
<line   x1 = "410" y1 = "306" x2 = "410" y2 = "313" style = "stroke:rgb(0,0, 0); stroke-width:1" />
<line   x1 = "367" y1 = "310" x2 = "304" y2 = "299" style = "stroke:rgb(0,0, 0); stroke-width:1" />
<line   x1 = "304" y1 = "299" x2 = "368" y2 = "289" style = "stroke:rgb(0,0, 0); stroke-width:1" />
<line   x1 = "368" y1 = "289" x2 = "367" y2 = "310" style = "stroke:rgb(0,0, 0); stroke-width:1" />
<line   x1 = "368" y1 = "289" x2 = "304" y2 = "299" style = "stroke:rgb(0,0, 0); stroke-width:1" />
<line   x1 = "304" y1 = "299" x2 = "305" y2 = "279" style = "stroke:rgb(0,0, 0); stroke-width:1" />
<line   x1 = "305" y1 = "279" x2 = "368" y2 = "289" style = "stroke:rgb(0,0, 0); stroke-width:1" />
<line   x1 = "261" y1 = "295" x2 = "258" y2 = "276" style = "stroke:rgb(0,0, 0); stroke-width:1" />
<line   x1 = "258" y1 = "276" x2 = "304" y2 = "299" style = "stroke:rgb(0,0, 0); stroke-width:1" />
<line   x1 = "304" y1 = "299" x2 = "261" y2 = "295" style = "stroke:rgb(0,0, 0); stroke-width:1" />
<line   x1 = "304" y1 = "299" x2 = "258" y2 = "276" style = "stroke:rgb(0,0, 0); stroke-width:1" />
<line   x1 = "258" y1 = "276" x2 = "305" y2 = "279" style = "stroke:rgb(0,0, 0); stroke-width:1" />
<line   x1 = "305" y1 = "279" x2 = "304" y2 = "299" style = "stroke:rgb(0,0, 0); stroke-width:1" />
<line   x1 = "368" y1 = "289" x2 = "362" y2 = "300" style = "stroke:rgb(0,0, 0); stroke-width:1" />
<line   x1 = "362" y1 = "300" x2 = "410" y2 = "306" style = "stroke:rgb(0,0, 0); stroke-width:1" />
<line   x1 = "410" y1 = "306" x2 = "368" y2 = "289" style = "stroke:rgb(0,0, 0); stroke-width:1" />
<line   x1 = "410" y1 = "306" x2 = "362" y2 = "300" style = "stroke:rgb(0,0, 0); stroke-width:1" />
<line   x1 = "362" y1 = "300" x2 = "410" y2 = "306" style = "stroke:rgb(0,0, 0); stroke-width:1" />
<line   x1 = "410" y1 = "306" x2 = "410" y2 = "306" style = "stroke:rgb(0,0, 0); stroke-width:1" />
<line   x1 = "305" y1 = "279" x2 = "294" y2 = "291" style = "stroke:rgb(0,0, 0); stroke-width:1" />
<line   x1 = "294" y1 = "291" x2 = "368" y2 = "289" style = "stroke:rgb(0,0, 0); stroke-width:1" />
<line   x1 = "368" y1 = "289" x2 = "305" y2 = "279" style = "stroke:rgb(0,0, 0); stroke-width:1" />
<line   x1 = "368" y1 = "289" x2 = "294" y2 = "291" style = "stroke:rgb(0,0, 0); stroke-width:1" />
<line   x1 = "294" y1 = "291" x2 = "362" y2 = "300" style = "stroke:rgb(0,0, 0); stroke-width:1" />
<line   x1 = "362" y1 = "300" x2 = "368" y2 = "289" style = "stroke:rgb(0,0, 0); stroke-width:1" />
<line   x1 = "305" y1 = "279" x2 = "258" y2 = "276" style = "stroke:rgb(0,0, 0); stroke-width:1" />
<line   x1 = "258" y1 = "276" x2 = "294" y2 = "291" style = "stroke:rgb(0,0, 0); stroke-width:1" />
<line   x1 = "294" y1 = "291" x2 = "305" y2 = "279" style = "stroke:rgb(0,0, 0); stroke-width:1" />
<line   x1 = "294" y1 = "291" x2 = "258" y2 = "276" style = "stroke:rgb(0,0, 0); stroke-width:1" />
<line   x1 = "258" y1 = "276" x2 = "247" y2 = "285" style = "stroke:rgb(0,0, 0); stroke-width:1" />
<line   x1 = "247" y1 = "285" x2 = "294" y2 = "291" style = "stroke:rgb(0,0, 0); stroke-width:1" />
<line   x1 = "356" y1 = "313" x2 = "410" y2 = "306" style = "stroke:rgb(0,0, 0); stroke-width:1" />
<line   x1 = "410" y1 = "306" x2 = "362" y2 = "300" style = "stroke:rgb(0,0, 0); stroke-width:1" />
<line   x1 = "362" y1 = "300" x2 = "356" y2 = "313" style = "stroke:rgb(0,0, 0); stroke-width:1" />
<line   x1 = "410" y1 = "306" x2 = "362" y2 = "300" style = "stroke:rgb(0,0, 0); stroke-width:1" />
<line   x1 = "362" y1 = "300" x2 = "410" y2 = "306" style = "stroke:rgb(0,0, 0); stroke-width:1" />
<line   x1 = "410" y1 = "306" x2 = "410" y2 = "306" style = "stroke:rgb(0,0, 0); stroke-width:1" />
<line   x1 = "362" y1 = "300" x2 = "294" y2 = "291" style = "stroke:rgb(0,0, 0); stroke-width:1" />
<line   x1 = "294" y1 = "291" x2 = "356" y2 = "313" style = "stroke:rgb(0,0, 0); stroke-width:1" />
<line   x1 = "356" y1 = "313" x2 = "362" y2 = "300" style = "stroke:rgb(0,0, 0); stroke-width:1" />
<line   x1 = "356" y1 = "313" x2 = "294" y2 = "291" style = "stroke:rgb(0,0, 0); stroke-width:1" />
<line   x1 = "294" y1 = "291" x2 = "281" y2 = "305" style = "stroke:rgb(0,0, 0); stroke-width:1" />
<line   x1 = "281" y1 = "305" x2 = "356" y2 = "313" style = "stroke:rgb(0,0, 0); stroke-width:1" />
<line   x1 = "247" y1 = "285" x2 = "234" y2 = "296" style = "stroke:rgb(0,0, 0); stroke-width:1" />
<line   x1 = "234" y1 = "296" x2 = "294" y2 = "291" style = "stroke:rgb(0,0, 0); stroke-width:1" />
<line   x1 = "294" y1 = "291" x2 = "247" y2 = "285" style = "stroke:rgb(0,0, 0); stroke-width:1" />
<line   x1 = "294" y1 = "291" x2 = "234" y2 = "296" style = "stroke:rgb(0,0, 0); stroke-width:1" />
<line   x1 = "234" y1 = "296" x2 = "281" y2 = "305" style = "stroke:rgb(0,0, 0); stroke-width:1" />
<line   x1 = "281" y1 = "305" x2 = "294" y2 = "291" style = "stroke:rgb(0,0, 0); stroke-width:1" />
<line   x1 = "410" y1 = "306" x2 = "356" y2 = "313" style = "stroke:rgb(0,0, 0); stroke-width:1" />
<line   x1 = "356" y1 = "313" x2 = "410" y2 = "313" style = "stroke:rgb(0,0, 0); stroke-width:1" />
<line   x1 = "410" y1 = "313" x2 = "410" y2 = "306" style = "stroke:rgb(0,0, 0); stroke-width:1" />
<line   x1 = "410" y1 = "313" x2 = "356" y2 = "313" style = "stroke:rgb(0,0, 0); stroke-width:1" />
<line   x1 = "356" y1 = "313" x2 = "356" y2 = "333" style = "stroke:rgb(0,0, 0); stroke-width:1" />
<line   x1 = "356" y1 = "333" x2 = "410" y2 = "313" style = "stroke:rgb(0,0, 0); stroke-width:1" />
<line   x1 = "281" y1 = "305" x2 = "283" y2 = "324" style = "stroke:rgb(0,0, 0); stroke-width:1" />
<line   x1 = "283" y1 = "324" x2 = "356" y2 = "313" style = "stroke:rgb(0,0, 0); stroke-width:1" />
<line   x1 = "356" y1 = "313" x2 = "281" y2 = "305" style = "stroke:rgb(0,0, 0); stroke-width:1" />
<line   x1 = "356" y1 = "313" x2 = "283" y2 = "324" style = "stroke:rgb(0,0, 0); stroke-width:1" />
<line   x1 = "283" y1 = "324" x2 = "356" y2 = "333" style = "stroke:rgb(0,0, 0); stroke-width:1" />
<line   x1 = "356" y1 = "333" x2 = "356" y2 = "313" style = "stroke:rgb(0,0, 0); stroke-width:1" />
<line   x1 = "281" y1 = "305" x2 = "234" y2 = "296" style = "stroke:rgb(0,0, 0); stroke-width:1" />
<line   x1 = "234" y1 = "296" x2 = "283" y2 = "324" style = "stroke:rgb(0,0, 0); stroke-width:1" />
<line   x1 = "283" y1 = "324" x2 = "281" y2 = "305" style = "stroke:rgb(0,0, 0); stroke-width:1" />
<line   x1 = "283" y1 = "324" x2 = "234" y2 = "296" style = "stroke:rgb(0,0, 0); stroke-width:1" />
<line   x1 = "234" y1 = "296" x2 = "239" y2 = "315" style = "stroke:rgb(0,0, 0); stroke-width:1" />
<line   x1 = "239" y1 = "315" x2 = "283" y2 = "324" style = "stroke:rgb(0,0, 0); stroke-width:1" />
<line   x1 = "410" y1 = "313" x2 = "356" y2 = "333" style = "stroke:rgb(0,0, 0); stroke-width:1" />
<line   x1 = "356" y1 = "333" x2 = "410" y2 = "313" style = "stroke:rgb(0,0, 0); stroke-width:1" />
<line   x1 = "410" y1 = "313" x2 = "410" y2 = "313" style = "stroke:rgb(0,0, 0); stroke-width:1" />
<line   x1 = "356" y1 = "333" x2 = "362" y2 = "326" style = "stroke:rgb(0,0, 0); stroke-width:1" />
<line   x1 = "362" y1 = "326" x2 = "410" y2 = "313" style = "stroke:rgb(0,0, 0); stroke-width:1" />
<line   x1 = "410" y1 = "313" x2 = "356" y2 = "333" style = "stroke:rgb(0,0, 0); stroke-width:1" />
<line   x1 = "283" y1 = "324" x2 = "295" y2 = "317" style = "stroke:rgb(0,0, 0); stroke-width:1" />
<line   x1 = "295" y1 = "317" x2 = "356" y2 = "333" style = "stroke:rgb(0,0, 0); stroke-width:1" />
<line   x1 = "356" y1 = "333" x2 = "283" y2 = "324" style = "stroke:rgb(0,0, 0); stroke-width:1" />
<line   x1 = "356" y1 = "333" x2 = "295" y2 = "317" style = "stroke:rgb(0,0, 0); stroke-width:1" />
<line   x1 = "295" y1 = "317" x2 = "362" y2 = "326" style = "stroke:rgb(0,0, 0); stroke-width:1" />
<line   x1 = "362" y1 = "326" x2 = "356" y2 = "333" style = "stroke:rgb(0,0, 0); stroke-width:1" />
<line   x1 = "283" y1 = "324" x2 = "239" y2 = "315" style = "stroke:rgb(0,0, 0); stroke-width:1" />
<line   x1 = "239" y1 = "315" x2 = "295" y2 = "317" style = "stroke:rgb(0,0, 0); stroke-width:1" />
<line   x1 = "295" y1 = "317" x2 = "283" y2 = "324" style = "stroke:rgb(0,0, 0); stroke-width:1" />
<line   x1 = "295" y1 = "317" x2 = "239" y2 = "315" style = "stroke:rgb(0,0, 0); stroke-width:1" />
<line   x1 = "239" y1 = "315" x2 = "252" y2 = "310" style = "stroke:rgb(0,0, 0); stroke-width:1" />
<line   x1 = "252" y1 = "310" x2 = "295" y2 = "317" style = "stroke:rgb(0,0, 0); stroke-width:1" />
<line   x1 = "252" y1 = "310" x2 = "239" y2 = "315" style = "stroke:rgb(0,0, 0); stroke-width:1" />
<line   x1 = "239" y1 = "315" x2 = "251" y2 = "305" style = "stroke:rgb(0,0, 0); stroke-width:1" />
<line   x1 = "251" y1 = "305" x2 = "252" y2 = "310" style = "stroke:rgb(0,0, 0); stroke-width:1" />
<line   x1 = "252" y1 = "310" x2 = "251" y2 = "305" style = "stroke:rgb(0,0, 0); stroke-width:1" />
<line   x1 = "251" y1 = "305" x2 = "261" y2 = "295" style = "stroke:rgb(0,0, 0); stroke-width:1" />
<line   x1 = "261" y1 = "295" x2 = "252" y2 = "310" style = "stroke:rgb(0,0, 0); stroke-width:1" />
<line   x1 = "251" y1 = "305" x2 = "239" y2 = "315" style = "stroke:rgb(0,0, 0); stroke-width:1" />
<line   x1 = "239" y1 = "315" x2 = "247" y2 = "285" style = "stroke:rgb(0,0, 0); stroke-width:1" />
<line   x1 = "247" y1 = "285" x2 = "251" y2 = "305" style = "stroke:rgb(0,0, 0); stroke-width:1" />
<line   x1 = "247" y1 = "285" x2 = "239" y2 = "315" style = "stroke:rgb(0,0, 0); stroke-width:1" />
<line   x1 = "239" y1 = "315" x2 = "234" y2 = "296" style = "stroke:rgb(0,0, 0); stroke-width:1" />
<line   x1 = "234" y1 = "296" x2 = "247" y2 = "285" style = "stroke:rgb(0,0, 0); stroke-width:1" />
<line   x1 = "251" y1 = "305" x2 = "247" y2 = "285" style = "stroke:rgb(0,0, 0); stroke-width:1" />
<line   x1 = "247" y1 = "285" x2 = "261" y2 = "295" style = "stroke:rgb(0,0, 0); stroke-width:1" />
<line   x1 = "261" y1 = "295" x2 = "251" y2 = "305" style = "stroke:rgb(0,0, 0); stroke-width:1" />
<line   x1 = "261" y1 = "295" x2 = "247" y2 = "285" style = "stroke:rgb(0,0, 0); stroke-width:1" />
<line   x1 = "247" y1 = "285" x2 = "258" y2 = "276" style = "stroke:rgb(0,0, 0); stroke-width:1" />
<line   x1 = "258" y1 = "276" x2 = "261" y2 = "295" style = "stroke:rgb(0,0, 0); stroke-width:1" />
<line   x1 = "410" y1 = "313" x2 = "410" y2 = "313" style = "stroke:rgb(0,0, 0); stroke-width:1" />
<line   x1 = "410" y1 = "313" x2 = "410" y2 = "313" style = "stroke:rgb(0,0, 0); stroke-width:1" />
<line   x1 = "410" y1 = "313" x2 = "410" y2 = "313" style = "stroke:rgb(0,0, 0); stroke-width:1" />
<line   x1 = "410" y1 = "313" x2 = "410" y2 = "313" style = "stroke:rgb(0,0, 0); stroke-width:1" />
<line   x1 = "410" y1 = "313" x2 = "410" y2 = "313" style = "stroke:rgb(0,0, 0); stroke-width:1" />
<line   x1 = "410" y1 = "313" x2 = "410" y2 = "313" style = "stroke:rgb(0,0, 0); stroke-width:1" />
<line   x1 = "410" y1 = "313" x2 = "410" y2 = "313" style = "stroke:rgb(0,0, 0); stroke-width:1" />
<line   x1 = "410" y1 = "313" x2 = "410" y2 = "306" style = "stroke:rgb(0,0, 0); stroke-width:1" />
<line   x1 = "410" y1 = "306" x2 = "410" y2 = "313" style = "stroke:rgb(0,0, 0); stroke-width:1" />
<line   x1 = "410" y1 = "306" x2 = "410" y2 = "313" style = "stroke:rgb(0,0, 0); stroke-width:1" />
<line   x1 = "410" y1 = "313" x2 = "410" y2 = "306" style = "stroke:rgb(0,0, 0); stroke-width:1" />
<line   x1 = "410" y1 = "306" x2 = "410" y2 = "306" style = "stroke:rgb(0,0, 0); stroke-width:1" />
<line   x1 = "410" y1 = "313" x2 = "410" y2 = "313" style = "stroke:rgb(0,0, 0); stroke-width:1" />
<line   x1 = "410" y1 = "313" x2 = "410" y2 = "306" style = "stroke:rgb(0,0, 0); stroke-width:1" />
<line   x1 = "410" y1 = "306" x2 = "410" y2 = "313" style = "stroke:rgb(0,0, 0); stroke-width:1" />
<line   x1 = "410" y1 = "306" x2 = "410" y2 = "313" style = "stroke:rgb(0,0, 0); stroke-width:1" />
<line   x1 = "410" y1 = "313" x2 = "410" y2 = "306" style = "stroke:rgb(0,0, 0); stroke-width:1" />
<line   x1 = "410" y1 = "306" x2 = "410" y2 = "306" style = "stroke:rgb(0,0, 0); stroke-width:1" />
<line   x1 = "309" y1 = "289" x2 = "307" y2 = "138" style = "stroke:rgb(0,0, 0); stroke-width:1" />
<line   x1 = "307" y1 = "138" x2 = "236" y2 = "279" style = "stroke:rgb(0,0, 0); stroke-width:1" />
<line   x1 = "236" y1 = "279" x2 = "309" y2 = "289" style = "stroke:rgb(0,0, 0); stroke-width:1" />
<line   x1 = "410" y1 = "304" x2 = "311" y2 = "142" style = "stroke:rgb(0,0, 0); stroke-width:1" />
<line   x1 = "311" y1 = "142" x2 = "357" y2 = "298" style = "stroke:rgb(0,0, 0); stroke-width:1" />
<line   x1 = "357" y1 = "298" x2 = "410" y2 = "304" style = "stroke:rgb(0,0, 0); stroke-width:1" />
<line   x1 = "313" y1 = "143" x2 = "314" y2 = "288" style = "stroke:rgb(0,0, 0); stroke-width:1" />
<line   x1 = "314" y1 = "288" x2 = "360" y2 = "294" style = "stroke:rgb(0,0, 0); stroke-width:1" />
<line   x1 = "360" y1 = "294" x2 = "313" y2 = "143" style = "stroke:rgb(0,0, 0); stroke-width:1" />
</svg>